#N canvas 25 115 1440 852 10;
#X obj 35 64 gemwin;
#X msg 35 16 create \, 1;
#X msg 101 47 dimen 800 600;
#X obj 115 159 pix_video;
#X obj 294 282 pix_texture;
#X obj 100 211 pix_data;
#X obj 100 279 unpack f f f;
#X floatatom 100 303 5 0 0 0 - - -;
#X floatatom 140 303 5 0 0 0 - - -;
#X floatatom 179 303 5 0 0 0 - - -;
#X obj 36 144 tgl 15 0 empty empty empty 17 7 0 10 -262144 -1 -1 1
1;
#X obj 294 176 hsl 128 15 0 1 0 0 empty empty X -2 -8 0 10 -262144
-1 -1 6350 1;
#X obj 294 226 hsl 128 15 0 1 0 0 empty empty Y -2 -8 0 10 -262144
-1 -1 6350 1;
#X msg 292 142 dialog;
#X msg 101 16 destroy;
#X obj 115 134 gemhead 50;
#X obj 294 308 rectangle 5.3 4;
#X obj 36 118 loadbang;
#X floatatom 291 194 5 0 0 0 - - -;
#X floatatom 291 250 5 0 0 0 - - -;
#X obj 726 631 noteout 1;
#X obj 100 329 +;
#X msg 726 453 35 38 41 45;
#X msg 816 453 36 40 43 47;
#X obj 726 528 unpack f f f f;
#X floatatom 726 560 5 0 0 0 - - -;
#X floatatom 767 560 5 0 0 0 - - -;
#X floatatom 809 560 5 0 0 0 - - -;
#X floatatom 851 560 5 0 0 0 - - -;
#X obj 726 604 makenote 64 250;
#X msg 903 453 48 52 55 59;
#X msg 738 476 50 53 57 60;
#X msg 823 475 62 65 69 72;
#X msg 751 499 64 67 71 74;
#X msg 834 499 81 77 76 79;
#X obj 726 400 sel 0 1 2 3 4 5;
#X obj 567 170 metro;
#X obj 567 146 tgl 15 0 empty empty empty 17 7 0 10 -262144 -1 -1 1
1;
#X msg 593 78 125;
#X msg 626 78 250;
#X msg 661 78 500;
#X msg 695 79 750;
#X obj 593 43 sel 0 1 2;
#X obj 593 13 hradio 15 1 0 4 empty empty Tempo 0 -8 0 10 -262144 -1
-1 0;
#X floatatom 652 157 5 0 0 0 - - -;
#X text 648 174 Current Tempo;
#X floatatom 567 222 5 0 0 0 - - -;
#X obj 567 197 counter;
#X obj 567 248 % 4;
#X floatatom 567 274 5 0 0 0 - - -;
#X obj 650 373 sel 0 1 2;
#X obj 726 360 hradio 15 1 0 6 empty empty test_seq_chooser 0 -8 0
10 -262144 -1 -1 0;
#X floatatom 100 356 5 0 0 0 - - -;
#X obj 100 383 +;
#X floatatom 100 409 5 0 0 0 - - -;
#X text 142 411 Sum of rgb val;
#X obj 996 631 noteout 1;
#X msg 996 453 35 38 41 45;
#X msg 1086 453 36 40 43 47;
#X obj 996 528 unpack f f f f;
#X floatatom 996 560 5 0 0 0 - - -;
#X floatatom 1037 560 5 0 0 0 - - -;
#X floatatom 1079 560 5 0 0 0 - - -;
#X floatatom 1121 560 5 0 0 0 - - -;
#X obj 996 604 makenote 64 250;
#X msg 1173 453 48 52 55 59;
#X msg 1008 476 50 53 57 60;
#X msg 1093 475 62 65 69 72;
#X msg 1021 499 64 67 71 74;
#X msg 1104 499 81 77 76 79;
#X obj 996 400 sel 0 1 2 3 4 5;
#X obj 996 360 hradio 15 1 0 6 empty empty test_seq_chooser 0 -8 0
10 -262144 -1 -1 0;
#X obj 1264 631 noteout 1;
#X msg 1264 453 35 38 41 45;
#X msg 1354 453 36 40 43 47;
#X obj 1264 528 unpack f f f f;
#X floatatom 1264 560 5 0 0 0 - - -;
#X floatatom 1305 560 5 0 0 0 - - -;
#X floatatom 1347 560 5 0 0 0 - - -;
#X floatatom 1389 560 5 0 0 0 - - -;
#X obj 1264 604 makenote 64 250;
#X msg 1441 453 48 52 55 59;
#X msg 1276 476 50 53 57 60;
#X msg 1361 475 62 65 69 72;
#X msg 1289 499 64 67 71 74;
#X msg 1372 499 81 77 76 79;
#X obj 1264 400 sel 0 1 2 3 4 5;
#X obj 1264 360 hradio 15 1 0 6 empty empty test_seq_chooser 0 -8 0
10 -262144 -1 -1 0;
#X obj 100 438 * 100;
#X floatatom 100 470 5 0 0 0 - - -;
#X msg 393 137 0.5;
#X msg 392 198 0.5;
#X obj 63 531 moses;
#X floatatom 112 516 5 0 0 0 - - -;
#X floatatom 31 571 5 0 0 0 - - -;
#X floatatom 126 572 5 0 0 0 - - -;
#X obj 244 533 moses;
#X floatatom 288 517 5 0 0 0 - - -;
#X floatatom 448 515 5 0 0 0 - - -;
#X obj 398 531 moses;
#X floatatom 213 570 5 0 0 0 - - -;
#X floatatom 289 569 5 0 0 0 - - -;
#X floatatom 367 572 5 0 0 0 - - -;
#X floatatom 445 572 5 0 0 0 - - -;
#X msg 726 314 1;
#X msg 762 314 2;
#X msg 799 314 3;
#X msg 996 315 3;
#X msg 1031 315 4;
#X msg 1066 315 5;
#X msg 1266 315 4;
#X msg 1301 315 2;
#X msg 1334 315 0;
#X obj 36 169 metro 50;
#X connect 1 0 0 0;
#X connect 2 0 0 0;
#X connect 3 0 5 1;
#X connect 3 0 4 0;
#X connect 4 0 16 0;
#X connect 5 0 6 0;
#X connect 6 0 7 0;
#X connect 6 1 8 0;
#X connect 6 2 9 0;
#X connect 7 0 21 0;
#X connect 7 0 92 0;
#X connect 8 0 21 1;
#X connect 8 0 96 0;
#X connect 9 0 53 1;
#X connect 9 0 99 0;
#X connect 10 0 113 0;
#X connect 11 0 5 2;
#X connect 11 0 18 0;
#X connect 12 0 5 3;
#X connect 12 0 19 0;
#X connect 13 0 3 0;
#X connect 14 0 0 0;
#X connect 15 0 3 0;
#X connect 17 0 10 0;
#X connect 21 0 52 0;
#X connect 22 0 24 0;
#X connect 23 0 24 0;
#X connect 24 0 25 0;
#X connect 24 1 26 0;
#X connect 24 2 27 0;
#X connect 24 3 28 0;
#X connect 25 0 29 0;
#X connect 26 0 29 0;
#X connect 27 0 29 0;
#X connect 28 0 29 0;
#X connect 29 0 20 0;
#X connect 29 1 20 1;
#X connect 30 0 24 0;
#X connect 31 0 24 0;
#X connect 32 0 24 0;
#X connect 33 0 24 0;
#X connect 34 0 24 0;
#X connect 35 0 22 0;
#X connect 35 1 23 0;
#X connect 35 2 30 0;
#X connect 35 3 31 0;
#X connect 35 4 32 0;
#X connect 35 5 33 0;
#X connect 35 6 34 0;
#X connect 36 0 47 0;
#X connect 37 0 36 0;
#X connect 38 0 36 1;
#X connect 38 0 44 0;
#X connect 39 0 36 1;
#X connect 39 0 44 0;
#X connect 40 0 36 1;
#X connect 40 0 44 0;
#X connect 41 0 36 1;
#X connect 41 0 44 0;
#X connect 42 0 38 0;
#X connect 42 1 39 0;
#X connect 42 2 40 0;
#X connect 42 3 41 0;
#X connect 43 0 42 0;
#X connect 46 0 48 0;
#X connect 47 0 46 0;
#X connect 48 0 49 0;
#X connect 49 0 50 0;
#X connect 50 0 25 0;
#X connect 50 0 60 0;
#X connect 50 0 76 0;
#X connect 50 1 26 0;
#X connect 50 1 61 0;
#X connect 50 1 77 0;
#X connect 50 2 27 0;
#X connect 50 2 62 0;
#X connect 50 2 78 0;
#X connect 50 3 28 0;
#X connect 50 3 63 0;
#X connect 50 3 79 0;
#X connect 51 0 35 0;
#X connect 52 0 53 0;
#X connect 53 0 54 0;
#X connect 54 0 88 0;
#X connect 57 0 59 0;
#X connect 58 0 59 0;
#X connect 59 0 60 0;
#X connect 59 1 61 0;
#X connect 59 2 62 0;
#X connect 59 3 63 0;
#X connect 60 0 64 0;
#X connect 61 0 64 0;
#X connect 62 0 64 0;
#X connect 63 0 64 0;
#X connect 64 0 56 0;
#X connect 64 1 56 1;
#X connect 65 0 59 0;
#X connect 66 0 59 0;
#X connect 67 0 59 0;
#X connect 68 0 59 0;
#X connect 69 0 59 0;
#X connect 70 0 57 0;
#X connect 70 1 58 0;
#X connect 70 2 65 0;
#X connect 70 3 66 0;
#X connect 70 4 67 0;
#X connect 70 5 68 0;
#X connect 70 6 69 0;
#X connect 71 0 70 0;
#X connect 73 0 75 0;
#X connect 74 0 75 0;
#X connect 75 0 76 0;
#X connect 75 1 77 0;
#X connect 75 2 78 0;
#X connect 75 3 79 0;
#X connect 76 0 80 0;
#X connect 77 0 80 0;
#X connect 78 0 80 0;
#X connect 79 0 80 0;
#X connect 80 0 72 0;
#X connect 80 1 72 1;
#X connect 81 0 75 0;
#X connect 82 0 75 0;
#X connect 83 0 75 0;
#X connect 84 0 75 0;
#X connect 85 0 75 0;
#X connect 86 0 73 0;
#X connect 86 1 74 0;
#X connect 86 2 81 0;
#X connect 86 3 82 0;
#X connect 86 4 83 0;
#X connect 86 5 84 0;
#X connect 86 6 85 0;
#X connect 87 0 86 0;
#X connect 88 0 89 0;
#X connect 90 0 11 0;
#X connect 91 0 12 0;
#X connect 92 0 94 0;
#X connect 92 1 95 0;
#X connect 93 0 92 1;
#X connect 94 0 106 0;
#X connect 95 0 104 0;
#X connect 96 0 100 0;
#X connect 96 1 101 0;
#X connect 97 0 96 1;
#X connect 98 0 99 1;
#X connect 99 0 102 0;
#X connect 99 1 103 0;
#X connect 100 0 107 0;
#X connect 101 0 108 0;
#X connect 103 0 111 0;
#X connect 104 0 51 0;
#X connect 105 0 51 0;
#X connect 106 0 51 0;
#X connect 107 0 71 0;
#X connect 108 0 71 0;
#X connect 109 0 71 0;
#X connect 110 0 87 0;
#X connect 111 0 87 0;
#X connect 112 0 87 0;
#X connect 113 0 5 0;
