#N canvas 798 22 590 731 10;
#X obj 161 226 pix_video;
#X obj 146 278 pix_data;
#X obj 168 306 unpack f f f;
#X floatatom 168 330 5 0 0 0 - - -;
#X floatatom 208 330 5 0 0 0 - - -;
#X floatatom 247 330 5 0 0 0 - - -;
#X obj 82 227 metro 50;
#X obj 82 203 tgl 15 0 empty empty empty 17 7 0 10 -262144 -1 -1 1
1;
#X obj 638 479 t a a;
#X obj 638 500 print info;
#X obj 675 479 s \$0-info;
#X obj 648 489 t a a;
#X obj 648 510 print info;
#X obj 685 489 s \$0-info;
#X obj 168 356 +;
#X floatatom 168 382 5 0 0 0 - - -;
#X obj 168 409 +;
#X floatatom 168 436 5 0 0 0 - - -;
#X floatatom 168 490 5 0 0 0 - - -;
#X obj 168 463 * 100;
#X obj 421 508 cnv 15 80 120 empty empty empty 20 12 0 14 -260097 -66577
0;
#X floatatom 427 588 5 0 0 0 - - -;
#X msg 434 515 1;
#X msg 443 540 2;
#X msg 455 562 3;
#X text 451 490 Channels;
#X text 435 602 Current;
#X text 436 612 chnannel;
#X obj 305 693 ctlout 80;
#X obj 168 515 moses 127;
#X floatatom 330 661 5 0 0 0 - - -;
#X floatatom 279 659 5 0 0 0 - - -;
#X text 15 523 in between 0 - 127;
#X text 14 511 The range of cc messages;
#X text 134 598 If in the range;
#X text 285 571 Out of range;
#X text 301 583 (>=127);
#X text 165 613 (<127);
#X obj 15 17 cnv 15 200 80 empty empty empty 20 12 0 14 -257985 -66577
0;
#X obj 49 72 gemwin;
#X msg 49 24 create \, 1;
#X msg 115 55 dimen 800 600;
#X msg 115 24 destroy;
#X text 229 17 Click on "create" to get video;
#X text 229 36 Click on "destroy" to close video;
#X obj 82 176 loadbang;
#X obj 327 172 cnv 15 200 100 empty empty empty 20 12 0 14 -204800
-66577 0;
#X msg 345 177 debug;
#X obj 347 213 hsl 110 15 0 1 0 0 empty empty X -2 -8 0 10 -113408
-1 -1 0 1;
#X obj 346 247 hsl 110 15 0 1 0 0 empty empty Y -2 -8 0 10 -113408
-1 -1 0 1;
#X text 386 175 To select camera input;
#X obj 161 176 gemhead 50;
#X obj 367 348 pix_texture;
#X obj 367 374 rectangle 5.3 4;
#X connect 0 0 1 1;
#X connect 0 0 52 0;
#X connect 1 1 2 0;
#X connect 2 0 3 0;
#X connect 2 1 4 0;
#X connect 2 2 5 0;
#X connect 3 0 14 0;
#X connect 4 0 14 1;
#X connect 5 0 16 1;
#X connect 6 0 1 0;
#X connect 7 0 6 0;
#X connect 8 0 9 0;
#X connect 8 1 10 0;
#X connect 11 0 12 0;
#X connect 11 1 13 0;
#X connect 14 0 15 0;
#X connect 15 0 16 0;
#X connect 16 0 17 0;
#X connect 17 0 19 0;
#X connect 18 0 29 0;
#X connect 19 0 18 0;
#X connect 21 0 28 2;
#X connect 22 0 21 0;
#X connect 23 0 21 0;
#X connect 24 0 21 0;
#X connect 29 0 31 0;
#X connect 29 1 30 0;
#X connect 30 0 28 0;
#X connect 31 0 28 0;
#X connect 40 0 39 0;
#X connect 41 0 39 0;
#X connect 42 0 39 0;
#X connect 45 0 7 0;
#X connect 47 0 0 0;
#X connect 48 0 1 2;
#X connect 49 0 1 3;
#X connect 51 0 0 0;
#X connect 52 0 53 0;
